<?xml version="1.0" encoding="UTF-8" standalone="no"?>
<svg
   xmlns:dc="http://purl.org/dc/elements/1.1/"
   xmlns:cc="http://creativecommons.org/ns#"
   xmlns:rdf="http://www.w3.org/1999/02/22-rdf-syntax-ns#"
   xmlns:svg="http://www.w3.org/2000/svg"
   xmlns="http://www.w3.org/2000/svg"
   xmlns:sodipodi="http://sodipodi.sourceforge.net/DTD/sodipodi-0.dtd"
   xmlns:inkscape="http://www.inkscape.org/namespaces/inkscape"
   viewBox="0 0 32 32"
   width="32"
   version="1.1"
   height="32"
   id="svg4"
   sodipodi:docname="app-dark.svg"
   inkscape:version="0.92.2 2405546, 2018-03-11">
  <metadata
     id="metadata10">
    <rdf:RDF>
      <cc:Work
         rdf:about="">
        <dc:format>image/svg+xml</dc:format>
        <dc:type
           rdf:resource="http://purl.org/dc/dcmitype/StillImage" />
        <dc:title></dc:title>
      </cc:Work>
    </rdf:RDF>
  </metadata>
  <defs
     id="defs8" />
  <sodipodi:namedview
     pagecolor="#ffffff"
     bordercolor="#666666"
     borderopacity="1"
     objecttolerance="10"
     gridtolerance="10"
     guidetolerance="10"
     inkscape:pageopacity="0"
     inkscape:pageshadow="2"
     inkscape:window-width="1920"
     inkscape:window-height="1003"
     id="namedview6"
     showgrid="true"
     inkscape:zoom="14.75"
     inkscape:cx="17.298977"
     inkscape:cy="10.251466"
     inkscape:window-x="0"
     inkscape:window-y="36"
     inkscape:window-maximized="1"
     inkscape:current-layer="layer2">
    <inkscape:grid
       type="xygrid"
       id="grid860" />
  </sodipodi:namedview>
  <g
     inkscape:groupmode="layer"
     id="layer1"
     inkscape:label="doc"
     style="display:inline"
     transform="translate(0,16)" />
  <g
     inkscape:groupmode="layer"
     id="layer3"
     inkscape:label="arrow"
     transform="translate(0,16)" />
  <g
     inkscape:groupmode="layer"
     id="layer2"
     inkscape:label="pdf"
     transform="translate(0,16)">
    <path
       d="m 2.7,-13.9 c -0.3555556,0 -0.6349206,0.279365 -0.6349206,0.634921 V 3.242857 c 0,0.355556 0.279365,0.634921 0.6349206,0.634921 h 13.968254 c 0.355556,0 0.63492,-0.279365 0.63492,-0.634921 V -10.090476 L 13.49365,-13.9 Z m 1.904762,2.539683 h 7.619047 v 1.269841 H 4.604762 Z m 0,3.8095234 h 6.349206 v 1.2698413 H 4.604762 Z m 0,3.8095239 h 10.15873 v 1.2698412 H 4.604762 Z m 0,3.8095237 H 9.684128 V 1.338095 H 4.604762 Z"
       id="path2"
       inkscape:connector-curvature="0"
       style="fill:#000000;fill-opacity:1;stroke-width:1.26984131" />
    <path
       inkscape:connector-curvature="0"
       d="M 13,9.7 7,5.7229082 V 5.0600602 L 14,9.7 7,14.33994 v -0.662849 z"
       id="path2-6"
       style="stroke-width:0.81415522" />
    <path
       inkscape:connector-curvature="0"
       style="fill:#000000;fill-opacity:1;stroke-width:1.25532877"
       d="m 15.619092,-3.595783 c -0.351491,0 -0.627664,0.276172 -0.627664,0.627664 v 16.319275 c 0,0.351493 0.276173,0.627665 0.627664,0.627665 h 13.808617 c 0.351493,0 0.627665,-0.276172 0.627665,-0.627665 V 0.170204 L 26.289387,-3.595783 Z M 22.9,1.3 c 0,0 0.08787,1.1925624 -0.188299,2.8872563 0.897559,2.5771899 1.882993,2.9249161 2.322358,3.138322 0.928944,-0.07532 1.96459,-0.1255329 2.887256,0.3765986 0.627664,0.359024 1.122264,1.8829932 -0.376598,1.8829932 C 26.866839,9.5424869 25.615276,9.1508263 24.720227,8.70644 23.382046,8.8570794 21.719991,9.1081452 20.326575,9.7107029 18.757415,12.346893 18.054431,12.723492 17.502086,12.723492 15.976861,12.321787 16.799102,10.300708 17.376553,9.9617688 18.066984,9.3717642 18.876671,9.0328254 19.134014,8.9575057 19.246993,8.7692064 20.871388,5.5806712 21.268072,4.2500228 20.891474,2.964566 20.803601,1.6063003 21.017007,0.7978685 21.996163,-0.480057 22.9,0.3585036 22.9,1.3 Z M 22.02127,5.1915193 C 21.682331,6.5184018 20.329087,9.0629532 20.389342,8.9575057 21.776481,8.3486712 23.025533,8.1666485 24.406394,7.9532426 23.746091,7.6582404 22.967787,7.6394104 22.02127,5.1915193 Z"
       id="path2-3" />
  </g>
</svg>
